<?xml version="1.0" encoding="utf-8"?>
<!-- Generator: Adobe Illustrator 16.0.0, SVG Export Plug-In . SVG Version: 6.00 Build 0)  -->
<!DOCTYPE svg PUBLIC "-//W3C//DTD SVG 1.1//EN" "http://www.w3.org/Graphics/SVG/1.1/DTD/svg11.dtd">
<svg version="1.1" id="레이어_1" xmlns="http://www.w3.org/2000/svg" xmlns:xlink="http://www.w3.org/1999/xlink" x="0px"
	 y="0px" width="1732.732px" height="3150.313px" viewBox="0 0 1732.732 3150.313" enable-background="new 0 0 1732.732 3150.313"
	 xml:space="preserve">
<g>
	<path fill="none" d="M1044.651,618.537c-7.182-6.557-15.526-10.071-22.722-10.071c-3.997,0-7.639,1.084-10.53,3.333
		c-7.567,5.885-11.928,13.119-12.961,21.497c-2.22,18.01,11.488,35.752,11.627,35.929c11.514,15.908,27.262,25.963,43.359,32.283
		C1070.858,662.686,1060.683,633.175,1044.651,618.537z"/>
	<path fill="none" d="M1035.127,1625.314c43.572-23.84,65.211-58.982,64.316-104.45c-0.003-0.191-0.36-17.067-12.931-27.24
		c-9.544-7.724-23.651-9.785-41.932-6.131c-14.206,2.841-24.798,8.537-32.437,15.418c11.427,16.035,15.124,31.679,9.856,42.704
		c-3.375,7.063-10.233,11.263-18.37,11.263c-0.063,0-0.126,0-0.188,0c-6.869-0.055-11.901-6.342-12.821-16.02
		c-1.007-10.6,2.993-25.914,14.899-38.46c-0.484-0.619-0.98-1.237-1.489-1.857c-7.627-9.293-18.831-14.245-31.146-14.245
		c-5.159,0-10.513,0.869-15.882,2.651c-18.796,6.239-39.454,25.284-41.063,60.027c-1.5,32.428,48.882,64.62,95.297,87.287
		C1018.907,1633.342,1027.041,1629.739,1035.127,1625.314z"/>
	<path fill="none" d="M995.599,1540.385c0.525,5.53,2.872,11.453,7.883,11.493c6.298,0.059,11.427-3.018,14.008-8.418
		c4.407-9.224,1.056-22.734-8.945-36.99C998.212,1517.679,994.713,1531.06,995.599,1540.385z"/>
	<path fill="#8B8A8A" d="M1704.4,315.189c-8.31-14.865-29.013-20.904-61.553-17.944c-120.288,10.935-1053.361,14.631-1123.904,7.95
		c-22.813-2.161-28.147-4.331-29.347-5.368c0.982-1.404,5.627-4.274,21.161-10.117c30.132-11.333,278.056-18.218,465.401-12.924
		c43.919,1.241,84.826,1.78,122.808,1.78c62.921,0,117.734-1.483,164.618-3.716l-0.371-4.982
		c-75.025,3.567-170.436,5.211-286.914,1.92c-191.558-5.412-436.13,1.517-467.302,13.241c-19.387,7.292-25.111,10.905-24.503,15.466
		c0.579,4.339,5.993,7.026,33.977,9.677c70.607,6.689,1004.451,2.996,1124.829-7.948c30.377-2.764,49.474,2.418,56.732,15.401
		c14.873,26.602-23.243,78.133-23.643,78.668c-0.512,0.696-52.198,70.444-145.833,143.802
		c-86.35,67.65-227.071,152.3-407.08,171.393c-0.496,0.05-32.864,3.066-65.35-8.239c18.333-41.079,7.181-72.621-10.104-88.404
		c-13.185-12.039-29.508-14.917-39.694-6.993c-8.663,6.738-13.661,15.102-14.856,24.86c-2.461,20.091,12.042,38.813,12.601,39.522
		c10.697,14.781,26.06,26.239,45.185,33.858c-2.333,4.703-5.067,9.53-8.242,14.481C936.581,886.541,759.132,995.97,515.63,1045.817
		c-2.109,0.31-44.314,6.679-91.989,25.745c-28.63,11.449-53.63,25.176-74.307,40.798c-25.949,19.605-45.131,42.271-57.013,67.368
		c-27.767,58.649-16.208,130.606,34.355,213.872c40.723,67.061,99.876,122.415,175.818,164.523
		c60.67,33.64,132.128,58.946,212.39,75.215c136.564,27.681,252.945,19.451,254.104,19.364l0.13-0.013
		c1.024-0.13,19.091-2.516,41.856-10.955c38.361,18.573,73.729,30.584,74.123,30.717l0.139,0.042
		c0.614,0.168,62.027,17.178,123.097,49.597c55.97,29.711,123.117,78.804,125.168,143.957
		c1.664,52.875-39.175,109.15-121.382,167.263c-99.287,70.186-260.026,143.634-477.754,218.303
		c-229.514,78.711-402.774,173.283-514.969,281.088c-48.519,46.621-85.568,95.837-110.119,146.284
		c-22.135,45.48-34.244,92.133-35.99,138.662c-3.078,81.976,26.15,145.262,51.212,183.917
		c31.216,48.146,74.65,86.719,119.167,105.826c19.781,8.49,38.693,12.697,55.929,12.697c23.626,0,44.102-7.905,59.344-23.52
		l-3.578-3.492c-24.838,25.444-64.831,28.986-109.722,9.72c-84.947-36.461-172.471-148.724-167.355-284.961
		c3.634-96.785,53.628-194.136,144.578-281.528c111.665-107.297,284.307-201.49,513.127-279.964
		c218.18-74.825,379.346-148.491,479.021-218.953c83.664-59.143,125.212-116.846,123.488-171.505
		c-0.943-29.948-14.903-59.041-41.491-86.471c-21.094-21.764-50.165-42.549-86.405-61.78c-60.549-32.13-121.409-49.23-123.965-49.94
		c-1.722-0.586-33.527-11.526-69.227-28.462c6.479-2.641,13.228-5.768,19.989-9.46c44.782-24.455,67.965-62.148,67.043-108.979
		c-0.008-0.784-0.345-19.328-14.738-31.016c-10.757-8.735-26.271-11.153-46.104-7.185c-14.988,2.998-26.257,9.003-34.469,16.311
		c-0.404-0.511-0.816-1.023-1.235-1.534c-12.168-14.826-32.275-19.871-52.468-13.167c-20.373,6.762-42.757,27.269-44.481,64.541
		c-1.24,26.793,27.861,55.799,86.496,86.215c2.409,1.25,4.824,2.478,7.231,3.68c-19.712,6.783-35.031,8.937-36.128,9.084
		c-3.431,0.242-118.149,7.983-252.668-19.283c-125.244-25.387-293.691-87.186-384.929-237.434
		c-49.632-81.732-61.11-152.091-34.116-209.123c26.148-55.246,84.341-87.938,128.553-105.633
		c48.129-19.264,90.601-25.433,91.023-25.493l0.15-0.026c148.97-30.484,275.027-84.146,374.673-159.494
		c63.069-47.69,114.094-102.632,155.991-167.963c3.375-5.263,6.274-10.403,8.738-15.41c7.305,2.591,15.115,4.65,23.388,6.152
		c24.345,4.418,43.814,2.531,44.643,2.447c80.05-8.491,159.115-30.451,235.003-65.271c60.689-27.848,119.492-63.935,174.774-107.26
		c94.13-73.771,146.136-143.977,146.637-144.66C1682.066,397.053,1720.846,344.615,1704.4,315.189z M1008.544,1506.469
		c10.001,14.256,13.353,27.766,8.945,36.99c-2.581,5.4-7.71,8.477-14.008,8.418c-5.011-0.04-7.357-5.962-7.883-11.493
		C994.713,1531.06,998.212,1517.679,1008.544,1506.469z M915.941,1548.974c1.608-34.743,22.267-53.788,41.063-60.027
		c5.369-1.782,10.723-2.651,15.882-2.651c12.314,0,23.519,4.951,31.146,14.245c0.509,0.62,1.005,1.239,1.489,1.857
		c-11.906,12.546-15.906,27.86-14.899,38.46c0.92,9.677,5.952,15.965,12.821,16.02c0.063,0,0.125,0,0.188,0
		c8.137,0,14.995-4.2,18.37-11.263c5.268-11.024,1.57-26.668-9.856-42.704c7.639-6.881,18.23-12.577,32.437-15.418
		c18.28-3.654,32.388-1.593,41.932,6.131c12.57,10.173,12.928,27.048,12.931,27.24c0.895,45.468-20.744,80.61-64.316,104.45
		c-8.086,4.424-16.22,8.028-23.889,10.946C964.823,1613.593,914.441,1581.402,915.941,1548.974z M1053.425,701.508
		c-16.098-6.32-31.846-16.375-43.359-32.283c-0.139-0.177-13.847-17.919-11.627-35.929c1.033-8.378,5.394-15.612,12.961-21.497
		c2.892-2.249,6.533-3.333,10.53-3.333c7.195,0,15.54,3.514,22.722,10.071C1060.683,633.175,1070.858,662.686,1053.425,701.508z"/>
	<path opacity="0.7" fill="#FFFFFF" d="M1345.667,212.449c-5.267,0.224-211.188,8.699-455.376-8.832
		c-111.704-8.019-124.739-21.457-125.159-26.862c-0.894-11.501,46.019-27.586,79.614-35.334l-1.123-4.872
		c-0.209,0.047-21.119,4.896-41.579,11.997c-28.907,10.031-42.612,19.385-41.897,28.596c0.742,9.56,15.003,23.223,129.787,31.463
		c246.44,17.691,453.974,8.926,456.04,8.835l0.197-0.017c0.352-0.043,7.105-0.816,40.818-1.715l0.744-5.021
		C1354.591,211.563,1346.712,212.332,1345.667,212.449z"/>
	<linearGradient id="SVGID_1_" gradientUnits="userSpaceOnUse" x1="1376.0771" y1="221.9438" x2="1376.0771" y2="270.4438">
		<stop  offset="0" style="stop-color:#FFFFFF"/>
		<stop  offset="0.9951" style="stop-color:#333333"/>
	</linearGradient>
	<path opacity="0.7" fill="url(#SVGID_1_)" d="M1464.174,256.258c15.055-2.456,25.678-12.452,24.709-23.25
		c-0.508-5.675-6.19-24.11-58.717-23.229c-17.435,0.296-31.35,0.601-42.438,0.894l-0.744,5.021
		c11.197-0.298,25.368-0.611,43.268-0.915c38.296-0.654,52.843,9.654,53.65,18.677c0.72,8.023-8.3,15.873-20.533,17.869
		c-24.857,4.056-90.884,13.333-200.16,18.528l0.371,4.982C1373.056,269.623,1439.254,260.325,1464.174,256.258z"/>
</g>
</svg>
